<?xml version="1.0" encoding="UTF-8"?><svg id="a" xmlns="http://www.w3.org/2000/svg" width="160.87mm" height="9.05mm" viewBox="0 0 456 25.67"><path d="M147.17.66h8.17c5.71,0,8.72,3.18,8.72,8.07s-3,7.88-8.72,7.88h-3.73v8.36h-4.44V.66ZM154.82,12.72c3.5,0,4.83-1.43,4.83-4.12s-1.33-4-4.83-4h-3.21v8.17l3.21-.05Z" style="fill:#000; stroke-width:0px;"/><path d="M166.24,12.82c.02-6.89,5.62-12.47,12.51-12.45,6.89.02,12.47,5.62,12.45,12.51-.02,6.88-5.6,12.45-12.48,12.45-6.89,0-12.47-5.57-12.48-12.46,0-.02,0-.03,0-.05ZM178.72,20.82c4.42,0,8-3.58,8-8s-3.6-8.04-8.04-8.04-8.04,3.6-8.04,8.04c-.02,4.42,3.54,8.02,7.96,8.04.04,0,.08,0,.12,0v-.04Z" style="fill:#000; stroke-width:0px;"/><path d="M193.83,12.82c-.01-6.89,5.56-12.48,12.45-12.49.01,0,.02,0,.03,0,2.18,0,4.32.58,6.19,1.69v5.31h-.22c-1.54-1.68-3.72-2.62-6-2.59-4.42,0-8,3.58-8,8s3.58,8,8,8c2.28.03,4.46-.92,6-2.6h.22v5.32c-1.85,1.19-3.99,1.84-6.19,1.87-6.89,0-12.47-5.57-12.48-12.46,0-.02,0-.03,0-.05Z" style="fill:#000; stroke-width:0px;"/><path d="M215.36,12.82c.02-6.89,5.62-12.47,12.51-12.45,6.89.02,12.47,5.62,12.45,12.51-.02,6.88-5.6,12.45-12.48,12.45-6.89,0-12.47-5.57-12.48-12.46,0-.02,0-.03,0-.05ZM227.84,20.82c4.42,0,8-3.58,8-8s-3.6-8.04-8.04-8.04-8.04,3.6-8.04,8.04c-.02,4.42,3.54,8.02,7.96,8.04.04,0,.08,0,.12,0v-.04Z" style="fill:#000; stroke-width:0px;"/><path d="M252.59.69h8.17c5.7,0,8.72,3.18,8.72,8.07s-3,7.88-8.72,7.88h-3.76v8.36h-4.44l.03-24.31ZM260.24,12.75c3.5,0,4.83-1.43,4.83-4.12s-1.33-4-4.83-4h-3.24v8.17l3.24-.05Z" style="fill:#000; stroke-width:0px;"/><path d="M270.52,16.54c-.16-4.5,3.37-8.27,7.86-8.43.05,0,.09,0,.14,0,1.99-.04,3.89.79,5.22,2.27v-2h4.44v16.26h-4.44v-1.94c-1.33,1.47-3.23,2.31-5.21,2.3-4.51-.08-8.09-3.8-8.01-8.3,0-.05,0-.1,0-.16ZM279.52,21.08c1.92.02,3.64-1.19,4.28-3v-3.08c-.84-2.36-3.44-3.6-5.8-2.76-2.36.84-3.6,3.44-2.76,5.8.64,1.81,2.36,3.02,4.28,3.02v.02Z" style="fill:#000; stroke-width:0px;"/><path d="M291.66,16.54c-.17-4.49,3.34-8.26,7.82-8.43.06,0,.12,0,.18,0,1.99-.04,3.89.79,5.22,2.27V.33h4.44v24.31h-4.44v-1.94c-1.33,1.47-3.23,2.31-5.21,2.3-4.5-.07-8.09-3.78-8.01-8.28,0-.06,0-.12,0-.18ZM300.61,21.08c1.92.02,3.64-1.19,4.28-3v-3.08c-.84-2.36-3.44-3.6-5.8-2.76-2.36.84-3.6,3.44-2.76,5.8.64,1.81,2.36,3.02,4.28,3.02v.02Z" style="fill:#000; stroke-width:0px;"/></svg>