<?xml version="1.0" encoding="UTF-8"?><svg id="a" xmlns="http://www.w3.org/2000/svg" width="456.01" height="25" viewBox="0 0 456.01 25"><path d="m138.86.32h8.18c5.71,0,8.73,3.18,8.73,8.08s-3.02,7.89-8.73,7.89h-3.73v8.38h-4.45V.32Zm7.66,12.08c3.51,0,4.84-1.43,4.84-4.12s-1.33-4.06-4.84-4.06h-3.21v8.18h3.21Z"/><path d="m157.95,12.5c0-6.92,5.58-12.5,12.5-12.5s12.5,5.58,12.5,12.5-5.58,12.5-12.5,12.5-12.5-5.58-12.5-12.5Zm12.5,8.05c4.51,0,8.05-3.54,8.05-8.05s-3.54-8.05-8.05-8.05-8.05,3.54-8.05,8.05,3.54,8.05,8.05,8.05Z"/><path d="m185.58,12.5c0-6.92,5.58-12.5,12.5-12.5,2.27,0,4.42.62,6.2,1.69v5.36h-.23c-1.46-1.59-3.57-2.6-5.97-2.6-4.51,0-8.05,3.54-8.05,8.05s3.54,8.05,8.05,8.05c2.4,0,4.51-1.01,5.97-2.6h.23v5.32c-1.79,1.1-3.93,1.72-6.2,1.72-6.92,0-12.5-5.58-12.5-12.5h0Z"/><path d="m207.14,12.5c0-6.92,5.58-12.5,12.5-12.5s12.5,5.58,12.5,12.5-5.58,12.5-12.5,12.5-12.5-5.58-12.5-12.5Zm12.5,8.05c4.51,0,8.05-3.54,8.05-8.05s-3.54-8.05-8.05-8.05-8.05,3.54-8.05,8.05,3.54,8.05,8.05,8.05Z"/><path d="m252.43,18.12l-4.17,6.46h-3.74l6.15-9.15-5.86-8.72h3.72l3.91,6.03,3.91-6.03h3.72l-5.86,8.7,6.15,9.18h-3.74l-4.17-6.46h-.02Z"/><path d="m269.67,9.56h-7.94v-2.86h12.87l-8.82,17.88h-3.77l7.65-15.02h.01Z"/><path d="m280.89,6.7h6.01c4.19,0,6.41,2.34,6.41,5.94s-2.22,5.79-6.41,5.79h-2.74v6.15h-3.27V6.7h0Zm5.62,8.87c2.57,0,3.55-1.05,3.55-3.03s-.98-2.98-3.55-2.98h-2.36v6.01h2.36Z"/><path d="m295.06,12.66h3.27v2.07c.76-1.5,1.98-2.31,3.36-2.31.43,0,.88.07,1.12.17v3.05c-.33-.12-.72-.19-1.1-.19-1.67,0-3.38,1.24-3.38,3.98v5.15h-3.27v-11.92h0Z"/><path d="m303.97,18.62c0-3.48,2.69-6.2,6.58-6.2s6.6,2.72,6.6,6.2-2.72,6.2-6.6,6.2-6.58-2.74-6.58-6.2Zm6.58,3.34c1.86,0,3.34-1.48,3.34-3.34s-1.48-3.34-3.34-3.34-3.34,1.48-3.34,3.34,1.48,3.34,3.34,3.34Z"/></svg>