<?xml version="1.0" encoding="UTF-8"?><svg id="a" xmlns="http://www.w3.org/2000/svg" width="456" height="28.43" viewBox="0 0 456 28.43"><text transform="translate(171.57 26.49)" style="font-family:CamphorProForXiaoMi-Bold, &apos;Camphor Pro For XiaoMi&apos;; font-size:35.05px;"><tspan x="0" y="0" style="letter-spacing:.02em;">T</tspan><tspan x="21.87" y="0" style="letter-spacing:-.02em;">V</tspan></text><path d="M88.76,2.33c-3.5,0-6.99,.44-9.21,2.62-2.21,2.18-3.07,5.45-3.07,9.45s.76,7.22,2.98,9.4c2.21,2.17,5.8,2.7,9.29,2.7s6.98-.45,9.19-2.62c2.21-2.17,3.08-5.47,3.08-9.47s-.77-7.2-2.99-9.37c-2.21-2.18-5.79-2.7-9.28-2.7Zm5.3,17.85c-1.23,1.41-3.46,1.66-5.3,1.66s-4.07-.25-5.3-1.65c-1.23-1.41-1.31-3.34-1.31-5.78s.08-4.33,1.31-5.73c1.23-1.41,3.21-1.65,5.3-1.65s4.07,.24,5.3,1.65c1.23,1.41,1.31,3.29,1.31,5.73s-.08,4.37-1.31,5.78ZM40.32,2.75h-4.95c-.21,0-.38,.17-.38,.38V25.7c0,.2,.17,.37,.38,.37h4.95c.21,0,.38-.17,.38-.37V3.13c0-.21-.17-.38-.38-.38ZM19.53,14.22L28.32,3.34c.19-.24,.02-.59-.28-.59h-6.34c-.15,0-.29,.07-.38,.19l-5.81,7.7L9.84,2.95c-.09-.12-.23-.2-.39-.2H3.1c-.3,0-.47,.35-.28,.59L11.72,14.43,2.81,25.5c-.18,.24-.01,.58,.29,.58h6.35c.15,0,.3-.07,.39-.2l5.93-7.67,5.62,7.67c.09,.12,.24,.2,.39,.2h6.27c.3,0,.47-.35,.28-.58l-8.81-11.27ZM140.01,4.47c-2.01-1.87-5.25-2.1-7.87-2.1-3.38,0-5.54,.72-6.84,1.39h-.91c-1.28-.71-3.53-1.39-7.07-1.39-2.62,0-5.83,.19-7.81,1.85-1.64,1.37-2.02,3.2-2.02,6.96v14.51c0,.2,.17,.37,.38,.37h4.94c.21,0,.39-.17,.39-.37v-.05s0-9.17,0-11.89c0-2.15-.08-4.4,.38-5.24,.36-.65,.93-1.38,3.62-1.38,3.2,0,3.96,.22,4.46,1.64,.12,.33,.18,.81,.21,1.39v15.52c0,.2,.17,.37,.38,.37h4.95c.21,0,.38-.17,.38-.37V10.17c.03-.58,.09-1.06,.21-1.39,.5-1.42,1.26-1.64,4.46-1.64,2.69,0,3.25,.73,3.62,1.38,.47,.84,.38,3.08,.38,5.24,0,2.72,0,11.89,0,11.89v.05c0,.2,.17,.37,.38,.37h4.94c.21,0,.38-.17,.38-.37V12.07c0-3.9-.13-5.9-1.96-7.6Zm-71,1.38c-2.29-3.15-6.42-4.11-10.71-3.88-4.35,.23-7.38,1.16-8.15,1.45-.48,.18-.42,.59-.43,.84-.02,.83-.08,2.98-.08,3.86,0,.39,.48,.57,.87,.42,1.59-.56,4.51-1.46,6.86-1.65,2.54-.21,5.99,0,6.94,1.44,.45,.69,.48,1.73,.53,2.8-1.59-.14-3.93-.34-6.26-.22-1.82,.1-5.29,.25-7.34,1.34-1.67,.89-2.64,1.69-3.16,3.19-.42,1.21-.53,2.66-.4,3.84,.3,2.7,1.24,4.04,2.51,4.98,2,1.48,4.52,2.26,9.73,2.14,6.94-.15,8.76-2.39,9.68-3.99,1.57-2.71,1.3-6.99,1.25-9.62-.02-1.09-.18-4.67-1.85-6.98Zm-4.52,14.23c-.66,1.38-2.99,1.59-4.37,1.65-2.56,.12-4.44,.01-5.66-.59-.81-.4-1.4-1.31-1.45-2.35-.05-.88-.03-1.34,.37-1.86,.9-1.17,3.25-1.42,5.66-1.51,1.63-.06,4.12,.12,5.95,.34-.01,1.77-.13,3.54-.5,4.32ZM155.16,2.75h-4.95c-.21,0-.38,.17-.38,.38V25.7c0,.2,.17,.37,.38,.37h4.95c.21,0,.38-.17,.38-.37V3.13c0-.21-.17-.38-.38-.38Z"/><text transform="translate(230.67 26.49)" style="font-family:CamphorProForXiaoMi-Bold, &apos;Camphor Pro For XiaoMi&apos;; font-size:35.05px; letter-spacing:-.02em;"><tspan x="0" y="0">A</tspan></text><g><path d="M452.46,4.35c-.77-1.71-2.1-3.01-3.91-3.59-1.38-.45-2.79-.49-5.18-.49h-44.64c-2.39,0-4.34,.04-5.72,.49-1.8,.59-3.13,1.89-3.91,3.59-.69,1.53-.74,3.5-.74,5.95v7.82c0,2.45,.05,4.42,.74,5.95,.77,1.71,2.1,3.01,3.91,3.59,1.38,.45,3.34,.5,5.72,.5h44.64c2.39,0,3.8-.05,5.18-.5,1.8-.59,3.13-1.89,3.91-3.59,.69-1.53,.74-3.5,.74-5.95v-7.82c0-2.45-.05-4.42-.74-5.95Zm-1.02,14.14c0,2.11-.08,3.74-.5,4.7-.6,1.35-1.62,2.36-2.94,2.78-1.12,.36-1.72,.43-4.61,.43h-44.69c-2.89,0-4.03-.07-5.15-.43-1.32-.43-2.34-1.43-2.94-2.78-.42-.96-.5-2.58-.5-4.7V9.94c0-2.12,.08-3.74,.5-4.7,.6-1.35,1.62-2.36,2.94-2.78,1.12-.36,2.26-.43,5.15-.43h44.69c2.89,0,3.49,.07,4.61,.43,1.32,.43,2.34,1.43,2.94,2.78,.42,.96,.5,2.58,.5,4.7v8.55Z"/><path d="M443.37,28.23h-44.64c-2.31,0-4.33-.04-5.75-.5-1.77-.58-3.13-1.83-3.95-3.63-.69-1.53-.75-3.53-.75-5.98v-7.82c0-2.45,.06-4.45,.75-5.98,.81-1.8,2.18-3.06,3.95-3.63,1.41-.46,3.43-.5,5.75-.5h44.64c2.31,0,3.8,.04,5.2,.5,1.77,.58,3.13,1.83,3.95,3.63h0c.69,1.53,.75,3.53,.75,5.98v7.82c0,2.45-.06,4.45-.75,5.98-.81,1.8-2.18,3.06-3.95,3.63-1.41,.46-2.9,.5-5.2,.5ZM398.73,.34c-2.3,0-4.31,.04-5.7,.49-1.73,.56-3.07,1.79-3.86,3.56-.68,1.51-.74,3.49-.74,5.92v7.82c0,2.43,.05,4.41,.74,5.92,.8,1.76,2.13,2.99,3.86,3.56,1.39,.46,3.41,.49,5.7,.49h44.09c2.3,0,4.31-.04,5.7-.49,1.73-.56,3.07-1.79,3.86-3.56,.68-1.51,.73-3.49,.73-5.92v-7.82c0-2.44-.05-4.42-.73-5.92-.8-1.76-2.13-2.99-3.86-3.56-1.39-.45-3.4-.49-5.7-.49h-44.09Zm44.66,26.14h-44.69c-2.82,0-4.03-.07-5.17-.44-1.3-.42-2.36-1.42-2.98-2.82-.42-.95-.51-2.58-.51-4.73V9.94c0-2.21,.09-3.77,.51-4.73,.62-1.4,1.68-2.4,2.98-2.82,1.14-.37,2.35-.43,5.17-.43h44.69c2.82,0,3.49,.07,4.63,.43,1.3,.42,2.36,1.42,2.98,2.82,.43,.96,.51,2.52,.51,4.73v8.55c0,2.15-.09,3.77-.51,4.73-.62,1.4-1.68,2.4-2.98,2.82-1.14,.37-1.8,.44-4.63,.44ZM398.71,2.1c-2.81,0-4,.06-5.13,.43-1.26,.41-2.29,1.38-2.89,2.75-.41,.93-.5,2.54-.5,4.67v8.55c0,2.13,.08,3.74,.5,4.67,.6,1.36,1.63,2.34,2.89,2.74,1.12,.37,2.32,.43,5.13,.43h44.14c2.81,0,4-.07,5.13-.43,1.26-.41,2.29-1.38,2.89-2.74,.41-.93,.5-2.54,.5-4.67V9.94c0-2.13-.08-3.74-.5-4.67-.6-1.36-1.63-2.34-2.89-2.75-1.12-.36-2.32-.43-5.13-.43h-44.14Z"/></g><text transform="translate(267.02 26.63)" style="font-family:CamphorProForXiaoMi-Bold, &apos;Camphor Pro For XiaoMi&apos;; font-size:35.05px;"><tspan x="0" y="0">P</tspan><tspan x="21.34" y="0" style="letter-spacing:-.02em;">r</tspan><tspan x="34.41" y="0">o</tspan></text><text transform="translate(335.69 26.39)" style="font-family:CamphorProForXiaoMi-Bold, &apos;Camphor Pro For XiaoMi&apos;; font-size:35.05px;"><tspan x="0" y="0">65</tspan></text><text transform="translate(396.04 21.78)" style="font-family:CamphorProForXiaoMi-Bold, &apos;Camphor Pro For XiaoMi&apos;; font-size:22.31px;"><tspan x="0" y="0">2025</tspan></text></svg>