<?xml version="1.0" encoding="UTF-8"?><svg id="a" xmlns="http://www.w3.org/2000/svg" width="456.01" height="111.17" viewBox="0 0 456.01 111.17"><path d="m293.79,24.09h-131.58c-6.65,0-12.05-5.39-12.05-12.05s5.39-12.05,12.05-12.05h131.58c6.65,0,12.05,5.39,12.05,12.05s-5.39,12.05-12.05,12.05"/><path d="m170.5,3.87l-6.01,16.04h3.04l1.58-4.41h5.73l1.58,4.41h3.02l-6.01-16.04h-2.93Zm-.42,8.94l1.83-5.1h.13l1.83,5.1h-3.8Z" style="fill:#fff;"/><path d="m188.56,9.54h-.11c-.39-.58-.87-1.03-1.44-1.35-.57-.32-1.2-.48-1.88-.48-.97,0-1.83.25-2.57.76-.75.51-1.32,1.22-1.74,2.15-.41.93-.62,2-.62,3.21s.21,2.37.63,3.33c.42.96,1.01,1.71,1.77,2.25.76.54,1.63.8,2.62.8.68,0,1.3-.16,1.87-.48s1.02-.77,1.37-1.35h.11v1.52h2.78V3.87h-2.78v5.67Zm-.26,6.33c-.23.54-.55.97-.97,1.27-.41.3-.89.46-1.42.46-.58,0-1.09-.15-1.52-.46-.43-.3-.77-.73-1.02-1.27-.25-.54-.37-1.18-.37-1.9s.12-1.36.36-1.91c.24-.55.57-.97,1-1.27.43-.3.92-.44,1.47-.44s1.04.15,1.48.44c.43.3.77.72,1,1.27.23.55.35,1.19.35,1.91s-.12,1.36-.35,1.9Z" style="fill:#fff;"/><polygon points="198.87 16.64 198.74 16.64 195.77 8.02 192.77 8.02 197.31 19.92 200.18 19.92 204.78 8.02 201.78 8.02 198.87 16.64" style="fill:#fff;"/><path d="m212.74,8.26c-.74-.36-1.58-.54-2.54-.54s-1.85.19-2.6.58c-.75.38-1.4.96-1.93,1.73l1.95,1.35c.29-.42.63-.74,1.03-.96.4-.22.85-.33,1.36-.33.69,0,1.26.19,1.68.56.43.38.64.88.64,1.5v.46h-1.69c-1.14,0-2.13.18-2.97.53-.84.35-1.48.85-1.92,1.49-.44.64-.66,1.38-.66,2.21,0,.69.17,1.3.5,1.8.33.51.79.9,1.37,1.17.58.27,1.23.41,1.95.41s1.38-.16,1.98-.48c.59-.32,1.03-.76,1.32-1.32h.13v1.5h2.74v-7.73c0-.91-.2-1.7-.61-2.38-.41-.67-.98-1.19-1.71-1.55Zm-.41,7.42c0,.48-.13.88-.4,1.22-.27.33-.6.58-1.01.75-.41.17-.82.25-1.26.25-.54,0-.97-.11-1.29-.34-.33-.22-.49-.52-.49-.9,0-.56.28-.99.84-1.29.56-.3,1.39-.44,2.51-.44h1.11v.76Z" style="fill:#fff;"/><path d="m223.97,7.72c-.71,0-1.38.17-2,.51-.62.34-1.11.8-1.45,1.38h-.11v-1.58h-2.76v11.9h2.76v-6.9c0-.54.1-1.01.31-1.42.21-.41.51-.73.9-.96.39-.22.85-.34,1.37-.34.64,0,1.16.23,1.56.68.4.46.61,1.06.61,1.81v7.12h2.76v-7.66c0-1.45-.35-2.56-1.04-3.35-.69-.79-1.66-1.18-2.91-1.18Z" style="fill:#fff;"/><path d="m234.11,10.77c.43-.3.93-.44,1.51-.44.52,0,1,.14,1.43.42.43.28.8.69,1.11,1.23l2.17-1.52c-.43-.83-1.07-1.48-1.9-1.98-.83-.49-1.73-.74-2.7-.74-1.16,0-2.17.25-3.04.76-.87.51-1.54,1.23-2.01,2.17-.47.94-.71,2.04-.71,3.3s.24,2.36.71,3.3c.47.94,1.14,1.67,2.01,2.18s1.88.77,3.04.77c.97,0,1.87-.25,2.7-.75.83-.5,1.47-1.16,1.9-1.99l-2.17-1.52c-.3.54-.67.94-1.11,1.23-.43.28-.92.42-1.45.42-.58,0-1.08-.15-1.5-.44-.42-.3-.75-.72-.98-1.27-.23-.55-.35-1.19-.35-1.93s.12-1.36.35-1.92c.23-.56.56-.98.99-1.28Z" style="fill:#fff;"/><path d="m249.93,8.37c-.8-.43-1.72-.65-2.78-.65-1.11,0-2.09.26-2.94.77-.85.51-1.49,1.25-1.94,2.2-.45.96-.67,2.07-.67,3.34s.24,2.35.71,3.28c.47.93,1.14,1.64,2.01,2.15.87.51,1.89.76,3.06.76s2.07-.24,2.87-.73c.8-.48,1.4-1.12,1.8-1.9l-2.08-1.43c-.3.55-.67.96-1.11,1.24-.43.28-.92.41-1.45.41-.65,0-1.2-.15-1.64-.46-.44-.3-.77-.73-1-1.28-.14-.35-.24-.75-.29-1.19h7.74c.14-.59.22-1.2.22-1.82,0-1.07-.22-2.01-.65-2.82-.43-.81-1.05-1.43-1.85-1.87Zm-5.4,4.28c.05-.28.11-.54.19-.77.2-.6.51-1.06.92-1.37.41-.31.92-.47,1.51-.47.54,0,.99.11,1.36.33.37.22.64.52.83.9.18.38.27.84.27,1.38h-5.07Z" style="fill:#fff;"/><path d="m262.41,3.87v5.67h-.11c-.39-.58-.87-1.03-1.44-1.35-.57-.32-1.2-.48-1.88-.48-.97,0-1.83.25-2.57.76-.75.51-1.32,1.22-1.74,2.15-.41.93-.62,2-.62,3.21s.21,2.37.63,3.33c.42.96,1.01,1.71,1.77,2.25.76.54,1.63.8,2.62.8.68,0,1.3-.16,1.87-.48s1.02-.77,1.37-1.35h.11v1.52h2.78V3.87h-2.78Zm-.26,11.99c-.23.54-.55.97-.97,1.27-.41.3-.89.46-1.42.46-.58,0-1.09-.15-1.52-.46-.43-.3-.77-.73-1.02-1.27-.25-.54-.37-1.18-.37-1.9s.12-1.36.36-1.91c.24-.55.57-.97,1-1.27.43-.3.92-.44,1.47-.44s1.04.15,1.48.44c.43.3.77.72,1,1.27.23.55.35,1.19.35,1.91s-.12,1.36-.35,1.9Z" style="fill:#fff;"/><path d="m278,3.87l-6.01,16.04h3.04l1.58-4.41h5.73l1.58,4.41h3.02l-6.01-16.04h-2.93Zm-.42,8.94l1.83-5.1h.13l1.83,5.1h-3.8Z" style="fill:#fff;"/><rect x="288.68" y="3.87" width="2.84" height="16.04" style="fill:#fff;"/><rect x="256.42" y="95.84" width="3.14" height=".87"/><path d="m244.88,93.76c-.07-.34-.16-.54-.23-.68-.17-.31-.53-.78-1.39-.78-.28,0-.81.03-1.3.56-.4.43-.77,1.17-.77,2.47,0,.88.18,1.9.87,2.53.48.43,1,.46,1.23.46.17,0,.59-.01.98-.31.62-.49.68-1.4.7-1.57h1.1c-.01.27-.04,1.16-.56,1.89-.29.42-.92,1.06-2.17,1.06-.26,0-.88-.02-1.51-.33-.87-.43-1.91-1.48-1.91-3.7,0-1.93.74-2.95,1.41-3.46.78-.59,1.6-.63,1.95-.63,1.02,0,1.97.44,2.41,1.41.17.36.22.71.27,1.1h-1.08,0Z"/><path d="m249.63,91.8c.76-.51,1.5-.54,1.82-.54,1.18,0,1.9.56,2.22.88.53.51,1.15,1.47,1.15,3.18,0,.47-.02,2.51-1.62,3.55-.53.34-1.11.51-1.75.51-.28,0-.94-.03-1.61-.42-1.74-1-1.77-3.17-1.77-3.64.01-1.32.41-2.73,1.57-3.52m.1,5.42c.17.32.33.5.44.61.49.48,1.02.51,1.27.51.72,0,1.29-.37,1.64-.99.21-.36.46-1.03.46-2.03,0-.22.02-1.72-.83-2.53-.2-.19-.59-.49-1.27-.49-.17,0-.56.01-.93.24-1.21.71-1.17,2.59-1.17,2.77,0,.22,0,1.14.38,1.9"/><polygon points="266 94.65 266 95.69 262.85 95.69 262.85 98.19 266.38 98.19 266.38 99.23 261.64 99.23 261.64 91.4 266.28 91.4 266.28 92.43 262.85 92.43 262.85 94.65 266 94.65"/><polygon points="270.18 91.4 273.64 97.38 273.64 91.4 274.78 91.4 274.78 99.23 273.53 99.23 270.03 93.25 270.03 99.23 268.88 99.23 268.88 91.4 270.18 91.4"/><path d="m283.64,95.26v3.24c-.09.07-.33.23-.61.38-.32.16-1.12.5-2.14.5-1.4,0-2.17-.63-2.55-1.07-.42-.49-.94-1.44-.94-3.01,0-.44.01-2.55,1.62-3.56.29-.18.9-.49,1.77-.49.99,0,1.97.4,2.44,1.32.14.27.26.57.31,1.18h-1.08c-.06-.28-.19-1.09-1.04-1.35-.26-.09-.52-.1-.61-.1-.32,0-1.07.08-1.59.82-.42.61-.56,1.5-.56,2.21,0,1.42.51,3,2.24,3,.57,0,1.22-.2,1.71-.51v-1.6h-1.59v-.96h2.62Z"/><rect x="286.42" y="91.4" width="1.22" height="7.84"/><polygon points="292 91.4 295.47 97.38 295.47 91.4 296.61 91.4 296.61 99.23 295.35 99.23 291.86 93.25 291.86 99.23 290.7 99.23 290.7 91.4 292 91.4"/><polygon points="304.03 94.65 304.03 95.69 300.88 95.69 300.88 98.19 304.41 98.19 304.41 99.23 299.67 99.23 299.67 91.4 304.31 91.4 304.31 92.43 300.88 92.43 300.88 94.65 304.03 94.65"/><polygon points="311.28 94.65 311.28 95.69 308.12 95.69 308.12 98.19 311.65 98.19 311.65 99.23 306.91 99.23 306.91 91.4 311.55 91.4 311.55 92.43 308.12 92.43 308.12 94.65 311.28 94.65"/><path d="m315.82,91.4c.43,0,1.01,0,1.44.06.32.06,1.26.19,1.77,1.07.12.2.31.61.3,1.2,0,.19-.02.77-.34,1.27-.17.26-.39.47-.63.63-.22.14-.42.21-.51.26l1.93,3.36h-1.43l-1.79-3.17h-1.21v3.17h-1.21v-7.84h1.69,0Zm.7,3.63c.32-.02,1.57-.04,1.55-1.33,0-.63-.36-.93-.57-1.04-.44-.26-1.21-.21-1.68-.22h-.49v2.6h1.18,0Z"/><polygon points="326.38 94.65 326.38 95.69 323.23 95.69 323.23 98.19 326.76 98.19 326.76 99.23 322.02 99.23 322.02 91.4 326.66 91.4 326.66 92.43 323.23 92.43 323.23 94.65 326.38 94.65"/><path d="m331.49,91.4c1.28.04,1.87.3,2.37.68.57.43,1.43,1.44,1.42,3.24,0,1.1-.36,2.29-1.19,3.05-.96.89-2.2.87-3.39.87h-1.43v-7.84h2.22,0Zm-.37,6.79c.61,0,.89-.01,1.18-.09.54-.12,1.31-.49,1.61-1.75.11-.48.11-.87.11-1.04,0-1.13-.39-2.37-1.6-2.74-.41-.12-.78-.13-1.6-.13h-.34v5.76h.64,0Z"/><polygon points="342.56 91.4 344.07 97.78 345.6 91.4 346.64 91.4 348.19 97.78 349.71 91.4 350.83 91.4 348.87 99.26 347.52 99.26 346.11 93.67 344.71 99.26 343.35 99.26 341.41 91.4 342.56 91.4"/><rect x="353.06" y="91.4" width="1.22" height="7.84"/><polygon points="361.89 91.4 361.89 92.43 359.83 92.43 359.83 99.23 358.62 99.23 358.62 92.43 356.57 92.43 356.57 91.4 361.89 91.4"/><polygon points="368.77 94.64 368.77 91.4 369.98 91.4 369.98 99.23 368.77 99.23 368.77 95.65 365.39 95.65 365.39 99.23 364.17 99.23 364.17 91.4 365.39 91.4 365.39 94.64 368.77 94.64"/><path d="m393.49,111.17c8.72,0,15.78-7.07,15.78-15.78s-7.07-15.79-15.78-15.79-15.78,7.07-15.78,15.79,7.07,15.78,15.78,15.78Z" style="fill:#e60012;"/><path d="m406.04,96.29s-.41.3-.7.3c-.22,0-.34-.19-.34-.39,0-.46.72-2.71.72-2.71l-1.75.03-.09.3s-.26-.52-1.17-.52c-1.78,0-2.76,1.54-2.8,2.44,0,.2-.01.23-.01.23-.04.05-.67.77-1.44.77-.62,0-.72-.52-.72-.85,0-.36.3-1.78,1.14-1.78.46,0,.74.4.74.4l.25-.81s-.39-.3-1.19-.3c-1.72,0-2.9,1.29-2.94,2.45,0,.17-.02.23-.01.24-.06.07-.48.56-1.03.56-.38,0-.38-.3-.38-.43,0-.18.74-2.71.74-2.71l-1.94.03-.7,2.46s-1.07.77-2.56.88c-.77.05-1.04-.41-1.04-.69v-.11s.31.02.55.02c.18,0,2.45-.16,2.45-1.55,0-.8-.8-1.1-1.8-1.1-1.86,0-3.16,1.15-3.16,2.52,0,1.25,1.07,1.78,2.44,1.78,1.56,0,3.08-.95,3.08-.95,0,0,.08.95,1.31.95s2.26-.95,2.26-.95c0,0,.55.92,1.81.92s2.28-1.04,2.28-1.04c0,0,.35.98,1.62.98,1,0,1.54-.66,1.54-.66,0,0,.29.66,1.16.66,1.06,0,1.86-.75,1.86-.75l-.19-.61h.02Zm-15.93-2.28c.26.01.44.2.43.4-.04,1.24-1.57,1.04-1.57,1.04,0,0,.25-1.49,1.14-1.44h0Zm12.23,2.72c-.48,0-.48-.53-.48-.68,0-.4.32-2,1.18-2,.37,0,.56.31.56.54,0,.05-.22,2.14-1.27,2.14Z" style="fill:#fff;"/><path d="m406.39,97.95s-4.08,1.42-11.88,1.33c-5.38-.07-9.48-1.65-9.48-1.65,0,0,.13-.26.22-.43.54-1.1,1.17-3.33,1.17-3.33,0,0,3.7-1.03,3.7-3.97,0-.93-.87-1.53-1.72-1.57-2.98-.12-3.81,4.13-3.99,4.85-.01.05-.02.07-.02.07-.92-.13-1.44-.31-1.44-.31l-.21.57c.62.3,1.52.39,1.52.39-.18,1.14-1.06,3.29-1.06,3.29,0,0-.82-.27-1.83-.27-1.31,0-1.77.63-1.8,1.02-.09,1.01,1.19,1.49,2.08,1.49,1.74,0,2.64-.94,2.64-.94,0,0,4.88,1.84,9.98,1.84,6.67,0,12.29-1.77,12.29-1.77l-.19-.61h0Zm-17.84-8.78c.57,0,.76.47.71.88-.28,2.45-2.71,3.01-2.71,3.01,0,0,.6-3.89,2-3.89h0Zm-7.25,9.46c-.49.01-.81-.31-.81-.5,0-.4.5-.47.81-.45.76.04,1.42.3,1.42.3,0,0-.77.62-1.42.64Z" style="fill:#fff;"/><path d="m394.46,91.19c-.62,0-1.08.25-1.08.84s.53.75,1.08.75,1.05-.26,1.05-.86-.6-.73-1.05-.73Z" style="fill:#fff;"/><polygon points="255.87 51.06 255.87 55.46 260.97 52.83 260.97 71.78 265.2 71.78 265.2 48.05 261.77 48.05 255.87 51.06"/><path d="m284.6,48.05h-5.93l-9.01,16.23v2.79h10.71v4.71h4.23v-4.71h2.95v-3.88h-2.95v-15.14Zm-10,15.13l5.77-10.55v10.55h-5.77Z"/><polygon points="288.23 48.08 288.23 52.03 295.25 52.03 295.25 71.78 299.45 71.78 299.45 52.03 306.47 52.03 306.47 48.08 288.23 48.08"/><path d="m329.51,48.08h-8.98v23.7h4.2v-8.11h5.07c2.59,0,4.61-.68,6.06-2.05,1.45-1.37,2.18-3.28,2.18-5.74s-.75-4.37-2.26-5.74c-1.51-1.37-3.6-2.05-6.27-2.05h0Zm2.97,10.69c-.82.67-1.99,1.01-3.51,1.01h-4.23v-7.85h4.23c1.52,0,2.69.34,3.51,1.03s1.24,1.66,1.24,2.92-.41,2.23-1.24,2.9Z"/><path d="m348.01,54.72c-1.09.64-1.96,1.55-2.6,2.73h-.16v-3.24h-4.07v17.57h4.07v-9.2c0-.96.24-1.8.72-2.52.48-.72,1.21-1.26,2.18-1.64.97-.37,2.2-.56,3.67-.56h.29v-4.11h-.19c-1.52,0-2.82.32-3.91.96h0Z"/><path d="m368.89,58.09c-.68-1.39-1.65-2.46-2.9-3.21-1.25-.75-2.71-1.12-4.38-1.12s-3.16.37-4.41,1.12c-1.25.75-2.21,1.82-2.89,3.21-.67,1.39-1.01,3.03-1.01,4.91s.33,3.48,1.01,4.88c.67,1.39,1.64,2.47,2.89,3.22s2.72,1.14,4.41,1.14,3.13-.37,4.38-1.12,2.22-1.82,2.9-3.22,1.03-3.03,1.03-4.89-.34-3.52-1.03-4.91h0Zm-3.64,7.76c-.33.81-.81,1.44-1.43,1.87-.62.44-1.36.66-2.21.66s-1.59-.22-2.21-.66c-.62-.44-1.1-1.06-1.44-1.87-.34-.81-.51-1.77-.51-2.85s.17-2.05.51-2.87c.34-.82.82-1.45,1.44-1.87.62-.43,1.36-.64,2.21-.64s1.59.21,2.21.64c.62.43,1.1,1.05,1.43,1.87s.5,1.78.5,2.87-.17,2.04-.5,2.85Z"/><path d="m173.73,47.58c-3.56,0-7.12.45-9.38,2.67-2.25,2.22-3.12,5.55-3.12,9.63s.77,7.35,3.04,9.57c2.25,2.21,5.91,2.75,9.47,2.75s7.11-.45,9.36-2.67c2.25-2.21,3.14-5.57,3.14-9.65s-.79-7.33-3.04-9.55c-2.25-2.22-5.9-2.74-9.46-2.74h0Zm5.4,18.19c-1.25,1.43-3.53,1.69-5.4,1.69s-4.14-.25-5.4-1.68c-1.26-1.43-1.34-3.41-1.34-5.89s.08-4.41,1.34-5.84c1.25-1.44,3.27-1.68,5.4-1.68s4.15.25,5.4,1.68c1.25,1.43,1.34,3.36,1.34,5.84s-.08,4.45-1.34,5.89h0Zm-54.74-17.75h-5.04c-.22,0-.39.17-.39.38v22.99c0,.21.17.38.39.38h5.04c.21,0,.39-.17.39-.38v-22.99c0-.21-.18-.38-.39-.38Zm-21.18,11.69l8.95-11.09c.2-.24.02-.6-.29-.6h-6.45c-.15,0-.3.07-.39.2l-5.91,7.84-5.77-7.84c-.09-.13-.24-.2-.4-.2h-6.48c-.31,0-.48.36-.29.6l9.06,11.29-9.07,11.28c-.19.24-.01.59.29.59h6.47c.16,0,.3-.07.4-.2l6.05-7.82,5.72,7.82c.09.13.24.2.4.2h6.39c.31,0,.48-.35.29-.6l-8.97-11.48h0Zm122.74-9.94c-2.05-1.91-5.35-2.14-8.02-2.14-3.44,0-5.64.73-6.97,1.42h-.92c-1.3-.72-3.6-1.42-7.2-1.42-2.67,0-5.94.2-7.96,1.89-1.67,1.4-2.05,3.27-2.05,7.09v14.78c0,.21.18.38.39.38h5.04c.22,0,.39-.17.39-.38v-12.16c0-2.2-.09-4.48.39-5.33.37-.67.95-1.4,3.68-1.4,3.27,0,4.04.23,4.55,1.67.12.34.18.83.21,1.42v15.81c0,.21.17.38.39.38h5.04c.21,0,.39-.17.39-.38v-15.81c.03-.59.09-1.08.21-1.42.51-1.44,1.28-1.67,4.55-1.67,2.74,0,3.31.74,3.68,1.4.47.85.39,3.14.39,5.33v12.16c0,.21.17.38.39.38h5.04c.21,0,.39-.17.39-.38v-13.88c0-3.97-.13-6.01-2-7.74Zm-72.33,1.41c-2.33-3.21-6.54-4.18-10.9-3.94-4.43.24-7.52,1.18-8.3,1.47-.49.19-.43.6-.43.86-.02.85-.08,3.04-.08,3.93,0,.39.48.58.89.43,1.62-.57,4.6-1.48,6.99-1.68,2.59-.21,6.1,0,7.07,1.47.46.7.49,1.77.54,2.86-1.61-.15-4.01-.35-6.38-.22-1.85.1-5.39.26-7.48,1.37-1.7.9-2.69,1.73-3.22,3.25-.43,1.23-.54,2.71-.4,3.91.31,2.75,1.27,4.12,2.55,5.07,2.04,1.5,4.6,2.3,9.91,2.18,7.07-.15,8.93-2.44,9.86-4.06,1.6-2.76,1.32-7.12,1.27-9.8-.02-1.11-.18-4.76-1.89-7.11h0Zm-4.61,14.5c-.67,1.4-3.04,1.62-4.45,1.69-2.61.12-4.52.01-5.76-.6-.82-.4-1.42-1.34-1.48-2.4-.05-.9-.03-1.37.38-1.9.91-1.19,3.31-1.45,5.77-1.54,1.66-.07,4.2.12,6.06.35-.01,1.8-.13,3.61-.51,4.4h0Zm92.37-17.65h-5.04c-.22,0-.39.17-.39.38v22.99c0,.21.17.38.39.38h5.04c.21,0,.39-.17.39-.38v-22.99c0-.21-.18-.38-.39-.38Z"/><polygon points="255.87 51.06 255.87 55.46 260.97 52.83 260.97 71.78 265.2 71.78 265.2 48.05 261.77 48.05 255.87 51.06"/><path d="m284.6,48.05h-5.93l-9.01,16.23v2.79h10.71v4.71h4.23v-4.71h2.95v-3.88h-2.95v-15.14Zm-10,15.13l5.77-10.55v10.55h-5.77Z"/><polygon points="288.23 48.08 288.23 52.03 295.25 52.03 295.25 71.78 299.45 71.78 299.45 52.03 306.47 52.03 306.47 48.08 288.23 48.08"/><path d="m329.51,48.08h-8.98v23.7h4.2v-8.11h5.07c2.59,0,4.61-.68,6.06-2.05,1.45-1.37,2.18-3.28,2.18-5.74s-.75-4.37-2.26-5.74c-1.51-1.37-3.6-2.05-6.27-2.05h0Zm2.97,10.69c-.82.67-1.99,1.01-3.51,1.01h-4.23v-7.85h4.23c1.52,0,2.69.34,3.51,1.03s1.24,1.66,1.24,2.92-.41,2.23-1.24,2.9Z"/><path d="m348.01,54.72c-1.09.64-1.96,1.55-2.6,2.73h-.16v-3.24h-4.07v17.57h4.07v-9.2c0-.96.24-1.8.72-2.52.48-.72,1.21-1.26,2.18-1.64.97-.37,2.2-.56,3.67-.56h.29v-4.11h-.19c-1.52,0-2.82.32-3.91.96h0Z"/><path d="m368.89,58.09c-.68-1.39-1.65-2.46-2.9-3.21-1.25-.75-2.71-1.12-4.38-1.12s-3.16.37-4.41,1.12c-1.25.75-2.21,1.82-2.89,3.21-.67,1.39-1.01,3.03-1.01,4.91s.33,3.48,1.01,4.88c.67,1.39,1.64,2.47,2.89,3.22s2.72,1.14,4.41,1.14,3.13-.37,4.38-1.12,2.22-1.82,2.9-3.22,1.03-3.03,1.03-4.89-.34-3.52-1.03-4.91h0Zm-3.64,7.76c-.33.81-.81,1.44-1.43,1.87-.62.44-1.36.66-2.21.66s-1.59-.22-2.21-.66c-.62-.44-1.1-1.06-1.44-1.87-.34-.81-.51-1.77-.51-2.85s.17-2.05.51-2.87c.34-.82.82-1.45,1.44-1.87.62-.43,1.36-.64,2.21-.64s1.59.21,2.21.64c.62.43,1.1,1.05,1.43,1.87s.5,1.78.5,2.87-.17,2.04-.5,2.85Z"/><path d="m173.73,47.58c-3.56,0-7.12.45-9.38,2.67-2.25,2.22-3.12,5.55-3.12,9.63s.77,7.35,3.04,9.57c2.25,2.21,5.91,2.75,9.47,2.75s7.11-.45,9.36-2.67c2.25-2.21,3.14-5.57,3.14-9.65s-.79-7.33-3.04-9.55c-2.25-2.22-5.9-2.74-9.46-2.74h0Zm5.4,18.19c-1.25,1.43-3.53,1.69-5.4,1.69s-4.14-.25-5.4-1.68c-1.26-1.43-1.34-3.41-1.34-5.89s.08-4.41,1.34-5.84c1.25-1.44,3.27-1.68,5.4-1.68s4.15.25,5.4,1.68c1.25,1.43,1.34,3.36,1.34,5.84s-.08,4.45-1.34,5.89h0Zm-54.74-17.75h-5.04c-.22,0-.39.17-.39.38v22.99c0,.21.17.38.39.38h5.04c.21,0,.39-.17.39-.38v-22.99c0-.21-.18-.38-.39-.38Zm-21.18,11.69l8.95-11.09c.2-.24.02-.6-.29-.6h-6.45c-.15,0-.3.07-.39.2l-5.91,7.84-5.77-7.84c-.09-.13-.24-.2-.4-.2h-6.48c-.31,0-.48.36-.29.6l9.06,11.29-9.07,11.28c-.19.24-.01.59.29.59h6.47c.16,0,.3-.07.4-.2l6.05-7.82,5.72,7.82c.09.13.24.2.4.2h6.39c.31,0,.48-.35.29-.6l-8.97-11.48h0Zm122.74-9.94c-2.05-1.91-5.35-2.14-8.02-2.14-3.44,0-5.64.73-6.97,1.42h-.92c-1.3-.72-3.6-1.42-7.2-1.42-2.67,0-5.94.2-7.96,1.89-1.67,1.4-2.05,3.27-2.05,7.09v14.78c0,.21.18.38.39.38h5.04c.22,0,.39-.17.39-.38v-12.16c0-2.2-.09-4.48.39-5.33.37-.67.95-1.4,3.68-1.4,3.27,0,4.04.23,4.55,1.67.12.34.18.83.21,1.42v15.81c0,.21.17.38.39.38h5.04c.21,0,.39-.17.39-.38v-15.81c.03-.59.09-1.08.21-1.42.51-1.44,1.28-1.67,4.55-1.67,2.74,0,3.31.74,3.68,1.4.47.85.39,3.14.39,5.33v12.16c0,.21.17.38.39.38h5.04c.21,0,.39-.17.39-.38v-13.88c0-3.97-.13-6.01-2-7.74Zm-72.33,1.41c-2.33-3.21-6.54-4.18-10.9-3.94-4.43.24-7.52,1.18-8.3,1.47-.49.19-.43.6-.43.86-.02.85-.08,3.04-.08,3.93,0,.39.48.58.89.43,1.62-.57,4.6-1.48,6.99-1.68,2.59-.21,6.1,0,7.07,1.47.46.7.49,1.77.54,2.86-1.61-.15-4.01-.35-6.38-.22-1.85.1-5.39.26-7.48,1.37-1.7.9-2.69,1.73-3.22,3.25-.43,1.23-.54,2.71-.4,3.91.31,2.75,1.27,4.12,2.55,5.07,2.04,1.5,4.6,2.3,9.91,2.18,7.07-.15,8.93-2.44,9.86-4.06,1.6-2.76,1.32-7.12,1.27-9.8-.02-1.11-.18-4.76-1.89-7.11h0Zm-4.61,14.5c-.67,1.4-3.04,1.62-4.45,1.69-2.61.12-4.52.01-5.76-.6-.82-.4-1.42-1.34-1.48-2.4-.05-.9-.03-1.37.38-1.9.91-1.19,3.31-1.45,5.77-1.54,1.66-.07,4.2.12,6.06.35-.01,1.8-.13,3.61-.51,4.4h0Zm92.37-17.65h-5.04c-.22,0-.39.17-.39.38v22.99c0,.21.17.38.39.38h5.04c.21,0,.39-.17.39-.38v-22.99c0-.21-.18-.38-.39-.38Z"/></svg>